<svg id="svg" version="1.1" xmlns="http://www.w3.org/2000/svg" xmlns:xlink="http://www.w3.org/1999/xlink" width="400" height="400" viewBox="0, 0, 400,400"><g id="svgg"><path id="path0" d="M119.472 91.461 C 118.809 92.124,119.169 309.102,119.833 309.357 C 120.659 309.674,144.141 309.674,144.967 309.357 C 145.538 309.138,145.600 305.539,145.600 272.728 L 145.600 236.341 147.728 234.070 C 148.898 232.822,150.494 231.080,151.275 230.200 C 152.056 229.320,155.281 225.720,158.443 222.200 C 161.605 218.680,164.824 215.094,165.596 214.231 C 166.368 213.368,168.012 211.568,169.250 210.231 C 170.487 208.894,172.525 206.595,173.777 205.123 C 175.030 203.651,176.267 202.533,176.527 202.640 C 176.787 202.747,179.731 206.922,183.069 211.917 C 192.967 226.730,200.157 237.370,200.593 237.848 C 200.817 238.094,203.577 242.144,206.727 246.848 C 209.877 251.552,217.685 263.140,224.078 272.600 C 230.471 282.060,238.486 293.940,241.889 299.000 C 245.292 304.060,248.439 308.515,248.882 308.900 C 249.700 309.610,277.824 310.011,280.298 309.348 C 281.228 309.099,280.763 308.324,273.126 297.400 C 266.828 288.392,262.091 281.596,258.086 275.823 C 255.564 272.188,251.122 265.828,250.000 264.246 C 249.670 263.781,246.473 259.170,242.896 254.000 C 239.318 248.830,235.617 243.520,234.671 242.200 C 233.725 240.880,230.512 236.290,227.531 232.000 C 224.550 227.710,221.356 223.120,220.432 221.800 C 217.133 217.085,212.960 211.081,210.471 207.470 C 209.080 205.451,206.550 201.820,204.849 199.400 C 197.286 188.638,195.151 185.538,194.957 185.032 C 194.769 184.541,196.556 182.338,203.542 174.451 C 204.784 173.048,206.520 171.037,207.400 169.981 C 209.346 167.647,218.870 156.679,219.194 156.400 C 219.436 156.191,227.373 147.055,245.985 125.558 C 248.727 122.391,251.072 119.710,251.196 119.600 C 251.485 119.344,271.707 96.068,273.698 93.700 C 274.522 92.719,275.096 91.756,274.974 91.559 C 274.850 91.357,268.026 91.200,259.399 91.200 L 244.045 91.200 243.069 92.100 C 242.533 92.595,238.615 97.140,234.364 102.200 C 230.113 107.260,224.436 114.010,221.749 117.200 C 219.061 120.390,214.666 125.610,211.981 128.800 C 209.296 131.990,206.627 135.142,206.050 135.805 C 205.472 136.468,203.650 138.626,202.000 140.600 C 200.350 142.574,198.529 144.732,197.953 145.395 C 195.922 147.731,191.764 152.629,188.600 156.410 C 183.145 162.930,165.539 184.103,163.996 186.000 C 163.190 186.990,159.397 191.589,155.566 196.221 C 151.735 200.852,148.150 205.216,147.600 205.917 C 145.505 208.589,145.610 211.416,145.501 149.300 L 145.400 91.400 132.572 91.295 C 125.517 91.237,119.622 91.312,119.472 91.461 " stroke="none" fill="#fafafa" fill-rule="evenodd"></path><path id="path1" d="M0.000 200.000 L 0.000 400.000 200.000 400.000 L 400.000 400.000 400.000 200.000 L 400.000 0.000 200.000 0.000 L 0.000 0.000 0.000 200.000 M145.501 149.300 C 145.610 211.416,145.505 208.589,147.600 205.917 C 148.150 205.216,151.735 200.852,155.566 196.221 C 159.397 191.589,163.190 186.990,163.996 186.000 C 165.539 184.103,183.145 162.930,188.600 156.410 C 191.764 152.629,195.922 147.731,197.953 145.395 C 198.529 144.732,200.350 142.574,202.000 140.600 C 203.650 138.626,205.472 136.468,206.050 135.805 C 206.627 135.142,209.296 131.990,211.981 128.800 C 214.666 125.610,219.061 120.390,221.749 117.200 C 224.436 114.010,230.113 107.260,234.364 102.200 C 238.615 97.140,242.533 92.595,243.069 92.100 L 244.045 91.200 259.399 91.200 C 268.026 91.200,274.850 91.357,274.974 91.559 C 275.096 91.756,274.522 92.719,273.698 93.700 C 271.707 96.068,251.485 119.344,251.196 119.600 C 251.072 119.710,248.727 122.391,245.985 125.558 C 227.373 147.055,219.436 156.191,219.194 156.400 C 218.870 156.679,209.346 167.647,207.400 169.981 C 206.520 171.037,204.784 173.048,203.542 174.451 C 196.556 182.338,194.769 184.541,194.957 185.032 C 195.151 185.538,197.286 188.638,204.849 199.400 C 206.550 201.820,209.080 205.451,210.471 207.470 C 212.960 211.081,217.133 217.085,220.432 221.800 C 221.356 223.120,224.550 227.710,227.531 232.000 C 230.512 236.290,233.725 240.880,234.671 242.200 C 235.617 243.520,239.318 248.830,242.896 254.000 C 246.473 259.170,249.670 263.781,250.000 264.246 C 251.122 265.828,255.564 272.188,258.086 275.823 C 262.091 281.596,266.828 288.392,273.126 297.400 C 280.763 308.324,281.228 309.099,280.298 309.348 C 277.824 310.011,249.700 309.610,248.882 308.900 C 248.439 308.515,245.292 304.060,241.889 299.000 C 238.486 293.940,230.471 282.060,224.078 272.600 C 217.685 263.140,209.877 251.552,206.727 246.848 C 203.577 242.144,200.817 238.094,200.593 237.848 C 200.157 237.370,192.967 226.730,183.069 211.917 C 179.731 206.922,176.787 202.747,176.527 202.640 C 176.267 202.533,175.030 203.651,173.777 205.123 C 172.525 206.595,170.487 208.894,169.250 210.231 C 168.012 211.568,166.368 213.368,165.596 214.231 C 164.824 215.094,161.605 218.680,158.443 222.200 C 155.281 225.720,152.056 229.320,151.275 230.200 C 150.494 231.080,148.898 232.822,147.728 234.070 L 145.600 236.341 145.600 272.728 C 145.600 305.539,145.538 309.138,144.967 309.357 C 144.141 309.674,120.659 309.674,119.833 309.357 C 119.169 309.102,118.809 92.124,119.472 91.461 C 119.622 91.312,125.517 91.237,132.572 91.295 L 145.400 91.400 145.501 149.300 " stroke="none" fill="#040404" fill-rule="evenodd"></path></g></svg>