<svg width="582" height="416" viewBox="0 0 582 416" fill="none" xmlns="http://www.w3.org/2000/svg">
<path d="M198 220C198 260.317 165.317 293 125 293C84.6832 293 52 260.317 52 220C52 179.683 84.6832 147 125 147C165.317 147 198 179.683 198 220Z" fill="#E6E6E6"/>
<text fill="black" xml:space="preserve" style="white-space: pre" font-family="Average Sans" font-size="36" letter-spacing="0em"><tspan x="85" y="234.144">PTSD</tspan></text>
<path d="M125.707 121.793C125.317 121.402 124.683 121.402 124.293 121.793L117.929 128.157C117.538 128.547 117.538 129.181 117.929 129.571C118.319 129.962 118.953 129.962 119.343 129.571L125 123.914L130.657 129.571C131.047 129.962 131.681 129.962 132.071 129.571C132.462 129.181 132.462 128.547 132.071 128.157L125.707 121.793ZM126 147V122.5H124V147H126Z" fill="black"/>
<path d="M217.707 221.707C218.098 221.317 218.098 220.683 217.707 220.293L211.343 213.929C210.953 213.538 210.319 213.538 209.929 213.929C209.538 214.319 209.538 214.953 209.929 215.343L215.586 221L209.929 226.657C209.538 227.047 209.538 227.681 209.929 228.071C210.319 228.462 210.953 228.462 211.343 228.071L217.707 221.707ZM198 222H217V220H198V222Z" fill="black"/>
<path d="M32.4245 192.182C31.9728 192.5 31.8644 193.124 32.1822 193.575L37.3616 200.936C37.6795 201.387 38.3033 201.496 38.7549 201.178C39.2066 200.86 39.3151 200.236 38.9972 199.785L34.3933 193.242L40.9358 188.638C41.3874 188.321 41.4959 187.697 41.1781 187.245C40.8602 186.793 40.2364 186.685 39.7848 187.003L32.4245 192.182ZM56.1713 196.015L33.1713 192.015L32.8287 193.985L55.8287 197.985L56.1713 196.015Z" fill="black"/>
<path d="M53.0077 284.876C52.9392 285.424 53.3279 285.924 53.876 285.992L62.8065 287.109C63.3545 287.177 63.8543 286.788 63.9228 286.24C63.9913 285.692 63.6026 285.193 63.0545 285.124L55.1163 284.132L56.1086 276.194C56.1771 275.646 55.7884 275.146 55.2403 275.077C54.6923 275.009 54.1925 275.397 54.124 275.945L53.0077 284.876ZM71.3861 270.211L53.3861 284.211L54.6139 285.789L72.6139 271.789L71.3861 270.211Z" fill="black"/>
<path d="M108.5 105C108.5 96.1634 115.663 89 124.5 89C133.337 89 140.5 96.1634 140.5 105C140.5 113.837 133.337 121 124.5 121C115.663 121 108.5 113.837 108.5 105Z" fill="white" stroke="black"/>
<path d="M0.5 189.5C0.5 180.663 7.66344 173.5 16.5 173.5C25.3366 173.5 32.5 180.663 32.5 189.5C32.5 198.337 25.3366 205.5 16.5 205.5C7.66344 205.5 0.5 198.337 0.5 189.5Z" fill="white" stroke="black"/>
<path d="M218.5 222C218.5 213.163 225.663 206 234.5 206C243.337 206 250.5 213.163 250.5 222C250.5 230.837 243.337 238 234.5 238C225.663 238 218.5 230.837 218.5 222Z" fill="white" stroke="black"/>
<path d="M23 293C23 284.163 30.1634 277 39 277C47.8366 277 55 284.163 55 293C55 301.837 47.8366 309 39 309C30.1634 309 23 301.837 23 293Z" fill="white" stroke="black"/>
<path d="M189.111 183.344C188.748 184.388 189.301 185.527 190.344 185.889L207.349 191.793C208.392 192.155 209.532 191.603 209.894 190.559C210.256 189.516 209.704 188.376 208.66 188.014L193.545 182.767L198.793 167.651C199.155 166.608 198.603 165.468 197.559 165.106C196.516 164.744 195.376 165.296 195.014 166.34L189.111 183.344ZM257.889 153.156C258.252 152.112 257.699 150.973 256.656 150.611L239.651 144.707C238.608 144.345 237.468 144.898 237.106 145.941C236.744 146.984 237.296 148.124 238.34 148.486L253.455 153.733L248.207 168.849C247.845 169.892 248.397 171.032 249.441 171.394C250.484 171.756 251.624 171.204 251.986 170.16L257.889 153.156ZM191.872 185.8L256.872 154.3L255.128 150.7L190.128 182.2L191.872 185.8Z" fill="black"/>
<path d="M181.936 263.306C181.001 263.894 180.719 265.128 181.306 266.064L190.88 281.306C191.468 282.242 192.702 282.524 193.638 281.936C194.573 281.349 194.855 280.114 194.268 279.179L185.757 265.63L199.306 257.12C200.242 256.532 200.524 255.298 199.936 254.362C199.349 253.427 198.114 253.145 197.179 253.732L181.936 263.306ZM381.064 311.694C381.999 311.106 382.281 309.872 381.694 308.936L372.12 293.694C371.532 292.758 370.298 292.476 369.362 293.064C368.427 293.651 368.145 294.886 368.732 295.821L377.243 309.37L363.694 317.88C362.758 318.468 362.476 319.702 363.064 320.638C363.651 321.573 364.886 321.855 365.821 321.268L381.064 311.694ZM182.555 266.95L379.555 311.95L380.445 308.05L183.445 263.05L182.555 266.95Z" fill="black"/>
<path d="M400 131.5C400 171.817 367.317 204.5 327 204.5C286.683 204.5 254 171.817 254 131.5C254 91.1832 286.683 58.5 327 58.5C367.317 58.5 400 91.1832 400 131.5Z" fill="#E6E6E6"/>
<text fill="black" xml:space="preserve" style="white-space: pre" font-family="Average Sans" font-size="24" letter-spacing="0em"><tspan x="275.074" y="127.096">Substance &#10;</tspan><tspan x="311.859" y="158.096">use</tspan></text>
<path d="M327.707 33.2929C327.317 32.9024 326.683 32.9024 326.293 33.2929L319.929 39.6569C319.538 40.0474 319.538 40.6805 319.929 41.0711C320.319 41.4616 320.953 41.4616 321.343 41.0711L327 35.4142L332.657 41.0711C333.047 41.4616 333.681 41.4616 334.071 41.0711C334.462 40.6805 334.462 40.0474 334.071 39.6569L327.707 33.2929ZM328 58.5V34H326V58.5H328Z" fill="black"/>
<path d="M419.707 133.207C420.098 132.817 420.098 132.183 419.707 131.793L413.343 125.429C412.953 125.038 412.319 125.038 411.929 125.429C411.538 125.819 411.538 126.453 411.929 126.843L417.586 132.5L411.929 138.157C411.538 138.547 411.538 139.181 411.929 139.571C412.319 139.962 412.953 139.962 413.343 139.571L419.707 133.207ZM400 133.5H419V131.5H400V133.5Z" fill="black"/>
<path d="M216.559 93.6023C216.064 93.8457 215.859 94.4449 216.102 94.9407L220.068 103.02C220.312 103.515 220.911 103.72 221.407 103.477C221.903 103.233 222.107 102.634 221.864 102.138L218.338 94.957L225.52 91.4316C226.015 91.1882 226.22 90.589 225.977 90.0933C225.733 89.5975 225.134 89.3929 224.638 89.6363L216.559 93.6023ZM258.323 107.554L217.323 93.5537L216.677 95.4463L257.677 109.446L258.323 107.554Z" fill="black"/>
<path d="M368.763 211.971C369.299 212.103 369.84 211.774 369.971 211.237L372.109 202.495C372.24 201.958 371.911 201.417 371.375 201.286C370.838 201.155 370.297 201.483 370.166 202.02L368.266 209.791L360.495 207.892C359.958 207.76 359.417 208.089 359.286 208.625C359.155 209.162 359.484 209.703 360.02 209.834L368.763 211.971ZM359.645 197.519L368.145 211.519L369.855 210.481L361.355 196.481L359.645 197.519Z" fill="black"/>
<path d="M310.5 16.5C310.5 7.66344 317.663 0.5 326.5 0.5C335.337 0.5 342.5 7.66344 342.5 16.5C342.5 25.3366 335.337 32.5 326.5 32.5C317.663 32.5 310.5 25.3366 310.5 16.5Z" fill="white" stroke="black"/>
<path d="M183.5 89.5C183.5 80.6634 190.663 73.5 199.5 73.5C208.337 73.5 215.5 80.6634 215.5 89.5C215.5 98.3366 208.337 105.5 199.5 105.5C190.663 105.5 183.5 98.3366 183.5 89.5Z" fill="white" stroke="black"/>
<path d="M420.5 133.5C420.5 124.663 427.663 117.5 436.5 117.5C445.337 117.5 452.5 124.663 452.5 133.5C452.5 142.337 445.337 149.5 436.5 149.5C427.663 149.5 420.5 142.337 420.5 133.5Z" fill="white" stroke="black"/>
<path d="M363.5 224.5C363.5 215.663 370.663 208.5 379.5 208.5C388.337 208.5 395.5 215.663 395.5 224.5C395.5 233.337 388.337 240.5 379.5 240.5C370.663 240.5 363.5 233.337 363.5 224.5Z" fill="white" stroke="black"/>
<path d="M529 326.5C529 366.817 496.317 399.5 456 399.5C415.683 399.5 383 366.817 383 326.5C383 286.183 415.683 253.5 456 253.5C496.317 253.5 529 286.183 529 326.5Z" fill="#E6E6E6"/>
<text fill="black" xml:space="preserve" style="white-space: pre" font-family="Average Sans" font-size="20" letter-spacing="0em"><tspan x="419.932" y="318.08">Emotion &#10;</tspan><tspan x="403.047" y="344.08">dysregulation</tspan></text>
<path d="M456.707 228.293C456.317 227.902 455.683 227.902 455.293 228.293L448.929 234.657C448.538 235.047 448.538 235.681 448.929 236.071C449.319 236.462 449.953 236.462 450.343 236.071L456 230.414L461.657 236.071C462.047 236.462 462.681 236.462 463.071 236.071C463.462 235.681 463.462 235.047 463.071 234.657L456.707 228.293ZM457 253.5V229H455V253.5H457Z" fill="black"/>
<path d="M548.707 328.207C549.098 327.817 549.098 327.183 548.707 326.793L542.343 320.429C541.953 320.038 541.319 320.038 540.929 320.429C540.538 320.819 540.538 321.453 540.929 321.843L546.586 327.5L540.929 333.157C540.538 333.547 540.538 334.181 540.929 334.571C541.319 334.962 541.953 334.962 542.343 334.571L548.707 328.207ZM529 328.5H548V326.5H529V328.5Z" fill="black"/>
<path d="M539.975 233.777C539.852 233.239 539.316 232.902 538.777 233.025L530.003 235.031C529.465 235.154 529.128 235.69 529.251 236.228C529.374 236.767 529.911 237.103 530.449 236.98L538.248 235.198L540.031 242.997C540.154 243.535 540.69 243.872 541.228 243.749C541.767 243.626 542.103 243.089 541.98 242.551L539.975 233.777ZM512.847 277.532L539.847 234.532L538.153 233.468L511.153 276.468L512.847 277.532Z" fill="black"/>
<path d="M384.008 391.376C383.939 391.924 384.328 392.424 384.876 392.492L393.806 393.609C394.354 393.677 394.854 393.288 394.923 392.74C394.991 392.192 394.603 391.693 394.055 391.624L386.116 390.632L387.109 382.694C387.177 382.146 386.788 381.646 386.24 381.577C385.692 381.509 385.193 381.897 385.124 382.445L384.008 391.376ZM402.386 376.711L384.386 390.711L385.614 392.289L403.614 378.289L402.386 376.711Z" fill="black"/>
<path d="M439.5 211.5C439.5 202.663 446.663 195.5 455.5 195.5C464.337 195.5 471.5 202.663 471.5 211.5C471.5 220.337 464.337 227.5 455.5 227.5C446.663 227.5 439.5 220.337 439.5 211.5Z" fill="white" stroke="black"/>
<path d="M532.5 219.5C532.5 210.663 539.663 203.5 548.5 203.5C557.337 203.5 564.5 210.663 564.5 219.5C564.5 228.337 557.337 235.5 548.5 235.5C539.663 235.5 532.5 228.337 532.5 219.5Z" fill="white" stroke="black"/>
<path d="M549.5 328.5C549.5 319.663 556.663 312.5 565.5 312.5C574.337 312.5 581.5 319.663 581.5 328.5C581.5 337.337 574.337 344.5 565.5 344.5C556.663 344.5 549.5 337.337 549.5 328.5Z" fill="white" stroke="black"/>
<path d="M354 399.5C354 390.663 361.163 383.5 370 383.5C378.837 383.5 386 390.663 386 399.5C386 408.337 378.837 415.5 370 415.5C361.163 415.5 354 408.337 354 399.5Z" fill="white" stroke="black"/>
</svg>
