<svg width="190" height="212" viewBox="0 0 190 212" fill="none" xmlns="http://www.w3.org/2000/svg">
<rect width="190" height="212" fill="#F5F5F5"/>
<path d="M85.3536 70.3536C85.5488 70.1583 85.5488 69.8417 85.3536 69.6464L82.1716 66.4645C81.9763 66.2692 81.6597 66.2692 81.4645 66.4645C81.2692 66.6597 81.2692 66.9763 81.4645 67.1716L84.2929 70L81.4645 72.8284C81.2692 73.0237 81.2692 73.3403 81.4645 73.5355C81.6597 73.7308 81.9763 73.7308 82.1716 73.5355L85.3536 70.3536ZM53 70.5H85V69.5H53V70.5Z" fill="#009951"/>
<path d="M142.194 84.4608C142.449 84.3537 142.568 84.0605 142.461 83.806L140.715 79.6586C140.607 79.4041 140.314 79.2847 140.06 79.3918C139.805 79.499 139.686 79.7922 139.793 80.0467L141.345 83.7332L137.659 85.2854C137.404 85.3926 137.285 85.6858 137.392 85.9403C137.499 86.1948 137.792 86.3142 138.047 86.2071L142.194 84.4608ZM114.811 73.463L141.811 84.463L142.189 83.537L115.189 72.537L114.811 73.463Z" fill="#C00F0C"/>
<path d="M108.238 84.5604C107.995 84.4288 107.692 84.519 107.56 84.7619L105.417 88.7187C105.286 88.9615 105.376 89.2649 105.619 89.3965C105.861 89.528 106.165 89.4378 106.296 89.195L108.202 85.6778L111.719 87.5829C111.961 87.7144 112.265 87.6242 112.396 87.3814C112.528 87.1386 112.438 86.8352 112.195 86.7036L108.238 84.5604ZM119.479 121.858L108.479 84.8575L107.521 85.1425L118.521 122.142L119.479 121.858Z" fill="#C00F0C"/>
<path d="M108.354 139.354C108.549 139.158 108.549 138.842 108.354 138.646L105.172 135.464C104.976 135.269 104.66 135.269 104.464 135.464C104.269 135.66 104.269 135.976 104.464 136.172L107.293 139L104.464 141.828C104.269 142.024 104.269 142.34 104.464 142.536C104.66 142.731 104.976 142.731 105.172 142.536L108.354 139.354ZM68 139.5H108V138.5H68V139.5Z" fill="#009951"/>
<path d="M115.5 150.98C115.489 150.704 115.256 150.489 114.98 150.5L110.484 150.68C110.208 150.691 109.993 150.924 110.004 151.2C110.015 151.476 110.248 151.69 110.524 151.679L114.52 151.52L114.68 155.516C114.691 155.792 114.924 156.007 115.2 155.996C115.476 155.985 115.69 155.752 115.679 155.476L115.5 150.98ZM91.3674 177.339L115.367 151.339L114.633 150.661L90.6326 176.661L91.3674 177.339Z" fill="#009951"/>
<path d="M52.8254 122.469C53.0842 122.565 53.3721 122.433 53.4685 122.175L55.0395 117.958C55.1359 117.699 55.0043 117.411 54.7455 117.315C54.4868 117.218 54.1989 117.35 54.1024 117.609L52.706 121.357L48.9577 119.96C48.6989 119.864 48.411 119.996 48.3146 120.254C48.2182 120.513 48.3498 120.801 48.6086 120.898L52.8254 122.469ZM36.5453 87.2079L52.5453 122.208L53.4547 121.792L37.4547 86.7921L36.5453 87.2079Z" fill="#009951"/>
<text fill="black" xml:space="preserve" style="white-space: pre" font-family="Average Sans" font-size="24" letter-spacing="0em"><tspan x="0.488281" y="24.596">Biological factors</tspan></text>
<path d="M20.5 70.5C20.5 61.6634 27.6634 54.5 36.5 54.5C45.3366 54.5 52.5 61.6634 52.5 70.5C52.5 79.3366 45.3366 86.5 36.5 86.5C27.6634 86.5 20.5 79.3366 20.5 70.5Z" fill="white" stroke="black"/>
<rect x="85.5" y="54.5" width="32" height="32" rx="16" fill="white" stroke="black"/>
<rect x="36.5" y="122.5" width="32" height="32" rx="16" fill="white" stroke="black"/>
<rect x="109.5" y="122.5" width="32" height="32" rx="16" fill="white" stroke="black"/>
<rect x="68.5" y="164.5" width="32" height="32" rx="16" fill="white" stroke="black"/>
<rect x="142.5" y="73.5" width="32" height="32" rx="16" fill="white" stroke="black"/>
<rect x="0.5" y="31.5" width="189" height="180" stroke="#8F8F8F" stroke-dasharray="2 2"/>
<path d="M20.5 70.5C20.5 61.6634 27.6634 54.5 36.5 54.5C45.3366 54.5 52.5 61.6634 52.5 70.5C52.5 79.3366 45.3366 86.5 36.5 86.5C27.6634 86.5 20.5 79.3366 20.5 70.5Z" fill="white" stroke="black"/>
<rect x="85.5" y="54.5" width="32" height="32" rx="16" fill="white" stroke="black"/>
<rect x="36.5" y="122.5" width="32" height="32" rx="16" fill="white" stroke="black"/>
<rect x="109.5" y="122.5" width="32" height="32" rx="16" fill="white" stroke="black"/>
<rect x="68.5" y="164.5" width="32" height="32" rx="16" fill="white" stroke="black"/>
<rect x="142.5" y="73.5" width="32" height="32" rx="16" fill="white" stroke="black"/>
<rect x="1" y="32" width="188" height="179" stroke="#8F8F8F" stroke-width="2" stroke-dasharray="2 2"/>
</svg>
