<svg width="201" height="212" viewBox="0 0 201 212" fill="none" xmlns="http://www.w3.org/2000/svg">
<path d="M88.3536 70.3536C88.5488 70.1583 88.5488 69.8417 88.3536 69.6464L85.1716 66.4645C84.9763 66.2692 84.6597 66.2692 84.4645 66.4645C84.2692 66.6597 84.2692 66.9763 84.4645 67.1716L87.2929 70L84.4645 72.8284C84.2692 73.0237 84.2692 73.3403 84.4645 73.5355C84.6597 73.7308 84.9763 73.7308 85.1716 73.5355L88.3536 70.3536ZM56 70.5H88V69.5H56V70.5Z" fill="#009951"/>
<path d="M154.533 105.499C154.808 105.481 155.017 105.243 154.999 104.967L154.704 100.477C154.686 100.201 154.448 99.9927 154.172 100.011C153.897 100.029 153.688 100.267 153.706 100.542L153.968 104.534L149.977 104.796C149.701 104.814 149.493 105.052 149.511 105.328C149.529 105.603 149.767 105.812 150.042 105.794L154.533 105.499ZM117.67 73.376L154.17 105.376L154.83 104.624L118.33 72.624L117.67 73.376Z" fill="#C00F0C"/>
<path d="M111.238 84.5604C110.995 84.4288 110.692 84.519 110.56 84.7619L108.417 88.7187C108.286 88.9615 108.376 89.2649 108.619 89.3965C108.861 89.528 109.165 89.4378 109.296 89.195L111.202 85.6778L114.719 87.5829C114.961 87.7144 115.265 87.6242 115.396 87.3814C115.528 87.1386 115.438 86.8352 115.195 86.7036L111.238 84.5604ZM122.479 121.858L111.479 84.8575L110.521 85.1425L121.521 122.142L122.479 121.858Z" fill="#C00F0C"/>
<path d="M152.189 69.537C151.933 69.4328 151.641 69.5556 151.537 69.8114L149.839 73.9788C149.735 74.2345 149.858 74.5263 150.114 74.6305C150.369 74.7346 150.661 74.6118 150.765 74.3561L152.274 70.6517L155.979 72.1609C156.235 72.2651 156.526 72.1422 156.63 71.8865C156.735 71.6308 156.612 71.339 156.356 71.2348L152.189 69.537ZM164.461 98.306L152.461 69.806L151.539 70.194L163.539 98.694L164.461 98.306Z" fill="#009951"/>
<path d="M88.3536 129.646C88.1583 129.451 87.8417 129.451 87.6464 129.646L84.4645 132.828C84.2692 133.024 84.2692 133.34 84.4645 133.536C84.6597 133.731 84.9763 133.731 85.1716 133.536L88 130.707L90.8284 133.536C91.0237 133.731 91.3403 133.731 91.5355 133.536C91.7308 133.34 91.7308 133.024 91.5355 132.828L88.3536 129.646ZM88.5 164V147H87.5V164H88.5ZM88.5 147V130H87.5V147H88.5Z" fill="#009951"/>
<path d="M117.5 150.98C117.489 150.704 117.256 150.489 116.98 150.5L112.484 150.68C112.208 150.691 111.993 150.924 112.004 151.2C112.015 151.476 112.248 151.69 112.524 151.679L116.52 151.52L116.68 155.516C116.691 155.792 116.924 156.007 117.2 155.996C117.476 155.985 117.69 155.752 117.679 155.476L117.5 150.98ZM93.3674 177.339L105.367 164.339L104.633 163.661L92.6326 176.661L93.3674 177.339ZM105.367 164.339L117.367 151.339L116.633 150.661L104.633 163.661L105.367 164.339Z" fill="#009951"/>
<path d="M167.387 129.683C167.212 129.47 166.897 129.438 166.683 129.613L163.201 132.463C162.987 132.637 162.955 132.952 163.13 133.166C163.305 133.38 163.62 133.411 163.834 133.237L166.93 130.704L169.463 133.799C169.637 134.013 169.952 134.045 170.166 133.87C170.38 133.695 170.411 133.38 170.237 133.166L167.387 129.683ZM164.498 160.05L167.498 130.05L166.502 129.95L163.502 159.95L164.498 160.05Z" fill="#009951"/>
<path d="M55.8254 122.469C56.0842 122.565 56.3721 122.433 56.4685 122.175L58.0395 117.958C58.1359 117.699 58.0043 117.411 57.7455 117.315C57.4868 117.218 57.1989 117.35 57.1024 117.609L55.706 121.357L51.9577 119.96C51.6989 119.864 51.411 119.996 51.3146 120.254C51.2182 120.513 51.3498 120.801 51.6086 120.898L55.8254 122.469ZM39.5453 87.2079L55.5453 122.208L56.4547 121.792L40.4547 86.7921L39.5453 87.2079Z" fill="#009951"/>
<text fill="black" xml:space="preserve" style="white-space: pre" font-family="Average Sans" font-size="24" letter-spacing="0em"><tspan x="0.304688" y="24.596">Psychological factors</tspan></text>
<path d="M23.5 70.5C23.5 61.6634 30.6634 54.5 39.5 54.5C48.3366 54.5 55.5 61.6634 55.5 70.5C55.5 79.3366 48.3366 86.5 39.5 86.5C30.6634 86.5 23.5 79.3366 23.5 70.5Z" fill="white" stroke="black"/>
<rect x="88.5" y="54.5" width="32" height="32" rx="16" fill="white" stroke="black"/>
<rect x="39.5" y="122.5" width="32" height="32" rx="16" fill="white" stroke="black"/>
<rect x="112.5" y="122.5" width="32" height="32" rx="16" fill="white" stroke="black"/>
<rect x="71.5" y="164.5" width="32" height="32" rx="16" fill="white" stroke="black"/>
<rect x="152.5" y="97.5" width="32" height="32" rx="16" fill="white" stroke="black"/>
<rect x="3.5" y="31.5" width="189" height="180" stroke="#8F8F8F" stroke-dasharray="2 2"/>
<path d="M23.5 70.5C23.5 61.6634 30.6634 54.5 39.5 54.5C48.3366 54.5 55.5 61.6634 55.5 70.5C55.5 79.3366 48.3366 86.5 39.5 86.5C30.6634 86.5 23.5 79.3366 23.5 70.5Z" fill="white" stroke="black"/>
<rect x="88.5" y="54.5" width="32" height="32" rx="16" fill="white" stroke="black"/>
<rect x="39.5" y="122.5" width="32" height="32" rx="16" fill="white" stroke="black"/>
<rect x="145.5" y="160.5" width="32" height="32" rx="16" fill="white" stroke="black"/>
<rect x="73.5" y="97.5" width="32" height="32" rx="16" fill="white" stroke="black"/>
<rect x="71.5" y="164.5" width="32" height="32" rx="16" fill="white" stroke="black"/>
<rect x="128.5" y="38.5" width="32" height="32" rx="16" fill="white" stroke="black"/>
<rect x="4" y="32" width="188" height="179" stroke="#8F8F8F" stroke-width="2" stroke-dasharray="2 2"/>
</svg>
