<svg width="953" height="516" viewBox="0 0 953 516" fill="none" xmlns="http://www.w3.org/2000/svg">
<rect x="0.5" y="31.5" width="567" height="387" stroke="#8F8F8F" stroke-dasharray="2 2"/>
<rect x="202.5" y="260.5" width="651" height="224" stroke="#8F8F8F" stroke-dasharray="2 2"/>
<rect x="513.5" y="47.5" width="439" height="188" stroke="#8F8F8F" stroke-dasharray="2 2"/>
<path d="M749.607 417.996C749.052 417.04 747.828 416.716 746.873 417.271L731.308 426.311C730.352 426.866 730.028 428.09 730.583 429.045C731.137 430 732.361 430.324 733.316 429.77L747.152 421.734L755.188 435.57C755.743 436.525 756.967 436.849 757.922 436.295C758.877 435.74 759.202 434.516 758.647 433.561L749.607 417.996ZM787.556 419.487C790.526 431.318 788.609 440.097 784.595 445.909C780.565 451.745 774.28 454.81 768.051 454.991C761.834 455.172 755.724 452.484 751.928 446.826C748.128 441.162 746.445 432.204 749.81 419.513L745.944 418.487C742.382 431.919 743.978 442.155 748.606 449.055C753.24 455.961 760.71 459.207 768.168 458.99C775.616 458.773 783.103 455.109 787.886 448.182C792.686 441.231 794.624 431.213 791.436 418.513L787.556 419.487Z" fill="#009951"/>
<path d="M769.707 90.7071C770.098 90.3166 770.098 89.6834 769.707 89.2929L763.343 82.9289C762.953 82.5384 762.319 82.5384 761.929 82.9289C761.538 83.3195 761.538 83.9526 761.929 84.3431L767.586 90L761.929 95.6569C761.538 96.0474 761.538 96.6805 761.929 97.0711C762.319 97.4616 762.953 97.4616 763.343 97.0711L769.707 90.7071ZM705 91H769V89H705V91Z" fill="#009951"/>
<path d="M745.025 171.223C745.149 171.762 745.685 172.098 746.223 171.975L754.996 169.964C755.534 169.841 755.871 169.305 755.747 168.766C755.624 168.228 755.088 167.892 754.549 168.015L746.751 169.802L744.964 162.004C744.841 161.466 744.305 161.129 743.766 161.253C743.228 161.376 742.892 161.912 743.015 162.451L745.025 171.223ZM783.975 111.777C783.851 111.238 783.315 110.902 782.777 111.025L774.004 113.036C773.466 113.159 773.129 113.695 773.253 114.234C773.376 114.772 773.912 115.108 774.451 114.985L782.249 113.198L784.036 120.996C784.159 121.534 784.695 121.871 785.234 121.747C785.772 121.624 786.108 121.088 785.985 120.549L783.975 111.777ZM746.847 171.531L783.847 112.531L782.153 111.469L745.153 170.469L746.847 171.531Z" fill="#009951"/>
<path d="M854.928 114.627C854.722 114.115 854.14 113.866 853.627 114.072L845.276 117.427C844.763 117.632 844.515 118.215 844.721 118.727C844.926 119.24 845.509 119.488 846.021 119.282L853.445 116.301L856.427 123.724C856.632 124.237 857.215 124.485 857.727 124.279C858.24 124.074 858.488 123.491 858.282 122.979L854.928 114.627ZM746.92 368.393L854.92 115.393L853.08 114.607L745.08 367.607L746.92 368.393Z" fill="#009951"/>
<path d="M421.473 337.15C421.004 337.441 420.859 338.058 421.15 338.527L425.895 346.175C426.186 346.644 426.802 346.789 427.271 346.498C427.741 346.207 427.885 345.59 427.594 345.121L423.377 338.323L430.175 334.105C430.644 333.814 430.789 333.198 430.498 332.729C430.207 332.259 429.59 332.115 429.121 332.406L421.473 337.15ZM661.228 393.026L422.228 337.026L421.772 338.974L660.772 394.974L661.228 393.026Z" fill="#009951"/>
<path d="M625.963 213.27C626.112 212.738 625.802 212.186 625.27 212.037L616.604 209.608C616.072 209.459 615.52 209.77 615.371 210.301C615.222 210.833 615.532 211.385 616.064 211.534L623.767 213.693L621.608 221.396C621.459 221.928 621.77 222.48 622.301 222.629C622.833 222.778 623.385 222.468 623.534 221.936L625.963 213.27ZM424.49 326.872L625.49 213.872L624.51 212.128L423.51 325.128L424.49 326.872Z" fill="#009951"/>
<path d="M473.95 228.688C473.777 228.163 473.212 227.878 472.688 228.05L464.138 230.861C463.613 231.033 463.328 231.599 463.5 232.123C463.673 232.648 464.238 232.933 464.763 232.761L472.362 230.262L474.861 237.862C475.033 238.387 475.599 238.672 476.123 238.5C476.648 238.327 476.933 237.762 476.761 237.237L473.95 228.688ZM424.893 326.451L473.893 229.451L472.107 228.549L423.107 325.549L424.893 326.451Z" fill="#009951"/>
<path d="M318.742 367.498C318.465 367.02 317.852 366.858 317.375 367.135L309.592 371.655C309.115 371.933 308.952 372.545 309.23 373.022C309.507 373.5 310.119 373.662 310.597 373.385L317.515 369.367L321.533 376.285C321.81 376.762 322.422 376.925 322.9 376.647C323.377 376.37 323.539 375.758 323.262 375.28L318.742 367.498ZM358.526 368.243C361.551 380.292 359.628 389.38 355.418 395.477C351.199 401.586 344.614 404.801 338.081 404.991C331.553 405.181 325.103 402.353 321.098 396.383C317.09 390.41 315.429 381.133 318.844 368.256L316.911 367.744C313.398 380.99 315.015 390.907 319.437 397.498C323.861 404.092 330.991 407.198 338.139 406.99C345.282 406.782 352.468 403.268 357.064 396.614C361.667 389.948 363.6 380.24 360.466 367.757L358.526 368.243Z" fill="#009951"/>
<path d="M238.248 326.969C238.783 326.832 239.106 326.287 238.969 325.752L236.738 317.033C236.601 316.498 236.057 316.175 235.522 316.312C234.987 316.449 234.664 316.994 234.801 317.529L236.783 325.279L229.033 327.262C228.498 327.399 228.175 327.943 228.312 328.478C228.449 329.013 228.994 329.336 229.529 329.199L238.248 326.969ZM102.49 246.86L237.49 326.86L238.51 325.14L103.51 245.14L102.49 246.86Z" fill="#009951"/>
<path d="M329.939 284.061C330.525 284.646 331.475 284.646 332.061 284.061L341.607 274.515C342.192 273.929 342.192 272.979 341.607 272.393C341.021 271.808 340.071 271.808 339.485 272.393L331 280.879L322.515 272.393C321.929 271.808 320.979 271.808 320.393 272.393C319.808 272.979 319.808 273.929 320.393 274.515L329.939 284.061ZM329.5 132L329.5 283L332.5 283L332.5 132L329.5 132Z" fill="#009951"/>
<path d="M411.907 119.004C411.357 119.056 410.953 119.543 411.004 120.093L411.844 129.054C411.896 129.604 412.384 130.008 412.933 129.956C413.483 129.905 413.887 129.417 413.836 128.867L413.089 120.902L421.054 120.156C421.604 120.104 422.008 119.616 421.956 119.067C421.905 118.517 421.417 118.113 420.867 118.164L411.907 119.004ZM482.638 177.23L412.638 119.23L411.362 120.77L481.362 178.77L482.638 177.23Z" fill="#009951"/>
<path d="M535.707 90.7071C536.098 90.3166 536.098 89.6834 535.707 89.2929L529.343 82.9289C528.953 82.5384 528.319 82.5384 527.929 82.9289C527.538 83.3195 527.538 83.9526 527.929 84.3431L533.586 90L527.929 95.6569C527.538 96.0474 527.538 96.6805 527.929 97.0711C528.319 97.4616 528.953 97.4616 529.343 97.0711L535.707 90.7071ZM424 91H535V89H424V91Z" fill="#009951"/>
<path d="M238.956 90.2944C239.118 89.7666 238.822 89.2069 238.294 89.0443L229.693 86.3947C229.165 86.2321 228.606 86.5282 228.443 87.056C228.281 87.5838 228.577 88.1435 229.104 88.306L236.75 90.6613L234.395 98.3067C234.232 98.8345 234.528 99.3942 235.056 99.5568C235.584 99.7194 236.143 99.4233 236.306 98.8955L238.956 90.2944ZM100.468 163.884L238.468 90.8839L237.532 89.1161L99.5324 162.116L100.468 163.884Z" fill="#C00F0C"/>
<rect x="661.5" y="368.5" width="169" height="50" rx="25" fill="white" stroke="black"/>
<text fill="black" xml:space="preserve" style="white-space: pre" font-family="Average Sans" font-size="24" letter-spacing="0em"><tspan x="671.551" y="402.596">Negative affect</tspan></text>
<rect x="388.5" y="178.5" width="169" height="50" rx="25" fill="white" stroke="black"/>
<text fill="black" xml:space="preserve" style="white-space: pre" font-family="Average Sans" font-size="24" letter-spacing="0em"><tspan x="415.766" y="212.596">Nightmares</tspan></text>
<rect x="769.5" y="64.5" width="169" height="50" rx="25" fill="white" stroke="black"/>
<text fill="black" xml:space="preserve" style="white-space: pre" font-family="Average Sans" font-size="24" letter-spacing="0em"><tspan x="797.832" y="98.596">Alcohol use</tspan></text>
<rect x="620.5" y="171.5" width="169" height="50" rx="25" fill="white" stroke="black"/>
<text fill="black" xml:space="preserve" style="white-space: pre" font-family="Average Sans" font-size="24" letter-spacing="0em"><tspan x="660.035" y="205.596">Insomnia</tspan></text>
<rect x="535.5" y="64.5" width="169" height="50" rx="25" fill="white" stroke="black"/>
<text fill="black" xml:space="preserve" style="white-space: pre" font-family="Average Sans" font-size="24" letter-spacing="0em"><tspan x="583.156" y="98.596">Craving</tspan></text>
<rect x="238.5" y="283.5" width="185" height="84" rx="42" fill="white" stroke="black"/>
<text fill="black" xml:space="preserve" style="white-space: pre" font-family="Average Sans" font-size="24" letter-spacing="0em"><tspan x="250.504" y="319.096">Being constantly </tspan><tspan x="286.938" y="350.096">&#x2018;on edge&#x2019;</tspan></text>
<rect x="10.5" y="161.5" width="185" height="84" rx="42" fill="white" stroke="black"/>
<text fill="black" xml:space="preserve" style="white-space: pre" font-family="Average Sans" font-size="24" letter-spacing="0em"><tspan x="17.8398" y="197.096">Avoiding possible </tspan><tspan x="28.3281" y="228.096">trauma triggers</tspan></text>
<rect x="238.5" y="47.5" width="185" height="84" rx="42" fill="white" stroke="black"/>
<text fill="black" xml:space="preserve" style="white-space: pre" font-family="Average Sans" font-size="24" letter-spacing="0em"><tspan x="252.953" y="83.096">Re-experiencing </tspan><tspan x="249.016" y="114.096">traumatic events</tspan></text>
<path d="M620.811 197.585C621.134 197.138 621.033 196.513 620.585 196.189L613.289 190.92C612.842 190.597 612.217 190.697 611.893 191.145C611.57 191.593 611.671 192.218 612.118 192.541L618.604 197.225L613.92 203.711C613.597 204.158 613.697 204.783 614.145 205.107C614.593 205.43 615.218 205.329 615.541 204.882L620.811 197.585ZM558.159 207.987L620.159 197.987L619.841 196.013L557.841 206.013L558.159 207.987Z" fill="#009951"/>
<text fill="black" xml:space="preserve" style="white-space: pre" font-family="Average Sans" font-size="24" letter-spacing="0em"><tspan x="0.0429688" y="24.596">Trauma</tspan></text>
<text fill="black" xml:space="preserve" style="white-space: pre" font-family="Average Sans" font-size="24" letter-spacing="0em"><tspan x="633.148" y="509.596">Emotion dysregulation</tspan></text>
<text fill="black" xml:space="preserve" style="white-space: pre" font-family="Average Sans" font-size="24" letter-spacing="0em"><tspan x="812.867" y="39.596">Substance use</tspan></text>
</svg>
