<svg width="806" height="383" viewBox="0 0 806 383" fill="none" xmlns="http://www.w3.org/2000/svg">
<rect x="0.5" y="67.5" width="185" height="84" rx="42" fill="white" stroke="black"/>
<text fill="black" xml:space="preserve" style="white-space: pre" font-family="Average Sans" font-size="24" letter-spacing="0em"><tspan x="66.0469" y="118.596">Node</tspan></text>
<path d="M317.707 110.707C318.098 110.317 318.098 109.683 317.707 109.293L311.343 102.929C310.953 102.538 310.319 102.538 309.929 102.929C309.538 103.319 309.538 103.953 309.929 104.343L315.586 110L309.929 115.657C309.538 116.047 309.538 116.681 309.929 117.071C310.319 117.462 310.953 117.462 311.343 117.071L317.707 110.707ZM186 111H317V109H186V111Z" fill="#009951"/>
<text fill="black" xml:space="preserve" style="white-space: pre" font-family="Average Sans" font-size="24" letter-spacing="0em"><tspan x="66.0469" y="118.596">Node</tspan></text>
<path d="M317.707 110.707C318.098 110.317 318.098 109.683 317.707 109.293L311.343 102.929C310.953 102.538 310.319 102.538 309.929 102.929C309.538 103.319 309.538 103.953 309.929 104.343L315.586 110L309.929 115.657C309.538 116.047 309.538 116.681 309.929 117.071C310.319 117.462 310.953 117.462 311.343 117.071L317.707 110.707ZM186 111H317V109H186V111Z" fill="#009951"/>
<text fill="black" xml:space="preserve" style="white-space: pre" font-family="Average Sans" font-size="24" letter-spacing="0em"><tspan x="227.43" y="134.596">Edge</tspan></text>
<text fill="black" xml:space="preserve" style="white-space: pre" font-family="Average Sans" font-size="24" letter-spacing="0em"><tspan x="234.258" y="267.596">Positive</tspan></text>
<text fill="black" xml:space="preserve" style="white-space: pre" font-family="Average Sans" font-size="24" letter-spacing="0em"><tspan x="227.488" y="322.596">Negative</tspan></text>
<path d="M158.707 243.707C159.098 243.317 159.098 242.683 158.707 242.293L152.343 235.929C151.953 235.538 151.319 235.538 150.929 235.929C150.538 236.319 150.538 236.953 150.929 237.343L156.586 243L150.929 248.657C150.538 249.047 150.538 249.681 150.929 250.071C151.319 250.462 151.953 250.462 152.343 250.071L158.707 243.707ZM27 244H158V242H27V244Z" fill="#009951"/>
<path d="M337.707 243.707C338.098 243.317 338.098 242.683 337.707 242.293L331.343 235.929C330.953 235.538 330.319 235.538 329.929 235.929C329.538 236.319 329.538 236.953 329.929 237.343L335.586 243L329.929 248.657C329.538 249.047 329.538 249.681 329.929 250.071C330.319 250.462 330.953 250.462 331.343 250.071L337.707 243.707ZM206 244H337V242H206V244Z" fill="#009951"/>
<path d="M337.707 298.707C338.098 298.317 338.098 297.683 337.707 297.293L331.343 290.929C330.953 290.538 330.319 290.538 329.929 290.929C329.538 291.319 329.538 291.953 329.929 292.343L335.586 298L329.929 303.657C329.538 304.047 329.538 304.681 329.929 305.071C330.319 305.462 330.953 305.462 331.343 305.071L337.707 298.707ZM206 299H337V297H206V299Z" fill="#C00F0C"/>
<path d="M159.061 284.061C159.646 283.475 159.646 282.525 159.061 281.939L149.515 272.393C148.929 271.808 147.979 271.808 147.393 272.393C146.808 272.979 146.808 273.929 147.393 274.515L155.879 283L147.393 291.485C146.808 292.071 146.808 293.021 147.393 293.607C147.979 294.192 148.929 294.192 149.515 293.607L159.061 284.061ZM27 284.5H158V281.5H27V284.5Z" fill="#009951"/>
<path d="M159.414 322.414C160.195 321.633 160.195 320.367 159.414 319.586L146.686 306.858C145.905 306.077 144.639 306.077 143.858 306.858C143.077 307.639 143.077 308.905 143.858 309.686L155.172 321L143.858 332.314C143.077 333.095 143.077 334.361 143.858 335.142C144.639 335.923 145.905 335.923 146.686 335.142L159.414 322.414ZM27 323H158V319H27V323Z" fill="#009951"/>
<text fill="black" xml:space="preserve" style="white-space: pre" font-family="Average Sans" font-size="24" letter-spacing="0em"><tspan x="0.265625" y="251.596">2</tspan></text>
<text fill="black" xml:space="preserve" style="white-space: pre" font-family="Average Sans" font-size="24" letter-spacing="0em"><tspan x="0.125" y="291.596">3</tspan></text>
<text fill="black" xml:space="preserve" style="white-space: pre" font-family="Average Sans" font-size="24" letter-spacing="0em"><tspan x="0.324219" y="329.596">4</tspan></text>
<text fill="black" xml:space="preserve" style="white-space: pre" font-family="Average Sans" font-size="24" letter-spacing="0em"><tspan x="27.2227" y="209.596">Edge weight</tspan></text>
<text fill="black" xml:space="preserve" style="white-space: pre" font-family="Average Sans" font-size="24" letter-spacing="0em"><tspan x="208.148" y="209.596">Edge valence</tspan></text>
<path d="M490.354 106.354C490.549 106.158 490.549 105.842 490.354 105.646L487.172 102.464C486.976 102.269 486.66 102.269 486.464 102.464C486.269 102.66 486.269 102.976 486.464 103.172L489.293 106L486.464 108.828C486.269 109.024 486.269 109.34 486.464 109.536C486.66 109.731 486.976 109.731 487.172 109.536L490.354 106.354ZM458 106.5H490V105.5H458V106.5Z" fill="#009951"/>
<path d="M548.2 120.458C548.453 120.348 548.569 120.053 548.458 119.8L546.66 115.675C546.55 115.422 546.255 115.306 546.002 115.417C545.749 115.527 545.633 115.822 545.744 116.075L547.342 119.741L543.675 121.34C543.422 121.45 543.306 121.745 543.417 121.998C543.527 122.251 543.822 122.367 544.075 122.256L548.2 120.458ZM519.817 109.465L547.817 120.465L548.183 119.535L520.183 108.535L519.817 109.465Z" fill="#C00F0C"/>
<path d="M619.038 169.499C619.314 169.477 619.52 169.237 619.499 168.962L619.153 164.475C619.132 164.2 618.892 163.994 618.617 164.015C618.341 164.036 618.135 164.276 618.156 164.552L618.463 168.54L614.475 168.847C614.2 168.868 613.994 169.108 614.015 169.383C614.036 169.659 614.276 169.865 614.552 169.844L619.038 169.499ZM576.675 133.38L618.675 169.38L619.325 168.62L577.325 132.62L576.675 133.38Z" fill="#009951"/>
<path d="M710.987 179.5C711.263 179.507 711.493 179.289 711.5 179.013L711.617 174.515C711.624 174.239 711.406 174.009 711.13 174.002C710.854 173.994 710.625 174.212 710.618 174.488L710.513 178.487L706.515 178.383C706.239 178.376 706.009 178.594 706.002 178.87C705.994 179.146 706.212 179.375 706.488 179.382L710.987 179.5ZM654.637 120.344L710.637 179.344L711.363 178.656L655.363 119.656L654.637 120.344Z" fill="#009951"/>
<path d="M758.045 219.498C758.32 219.473 758.523 219.23 758.498 218.955L758.091 214.473C758.066 214.198 757.822 213.996 757.547 214.021C757.272 214.046 757.07 214.289 757.095 214.564L757.457 218.547L753.473 218.909C753.198 218.934 752.996 219.178 753.021 219.453C753.046 219.728 753.289 219.93 753.564 219.905L758.045 219.498ZM733.68 199.384L757.68 219.384L758.32 218.616L734.32 198.616L733.68 199.384Z" fill="#009951"/>
<path d="M691.441 94.2358C691.571 93.9923 691.479 93.6893 691.236 93.5591L687.268 91.4367C687.024 91.3064 686.721 91.3982 686.591 91.6417C686.461 91.8852 686.553 92.1882 686.796 92.3185L690.323 94.2051L688.437 97.7322C688.306 97.9757 688.398 98.2787 688.642 98.4089C688.885 98.5392 689.188 98.4474 689.318 98.2039L691.441 94.2358ZM658.145 104.479L691.145 94.4785L690.855 93.5215L657.855 103.521L658.145 104.479Z" fill="#009951"/>
<path d="M758.224 104.447C758.471 104.324 758.571 104.023 758.447 103.776L756.435 99.7515C756.311 99.5045 756.011 99.4044 755.764 99.5279C755.517 99.6514 755.417 99.9517 755.54 100.199L757.329 103.776L753.751 105.565C753.504 105.689 753.404 105.989 753.528 106.236C753.651 106.483 753.952 106.583 754.199 106.46L758.224 104.447ZM721.842 92.4743L757.842 104.474L758.158 103.526L722.158 91.5257L721.842 92.4743Z" fill="#009951"/>
<path d="M638.399 125.698C638.232 125.478 637.919 125.435 637.698 125.601L634.109 128.315C633.889 128.482 633.845 128.795 634.012 129.016C634.178 129.236 634.492 129.279 634.712 129.113L637.903 126.7L640.315 129.891C640.482 130.111 640.795 130.155 641.016 129.988C641.236 129.822 641.279 129.508 641.113 129.288L638.399 125.698ZM633.495 162.069L638.495 126.069L637.505 125.931L632.505 161.931L633.495 162.069Z" fill="#009951"/>
<path d="M638.263 316.702C638.651 316.557 638.848 316.124 638.702 315.737L636.332 309.416C636.187 309.029 635.754 308.832 635.367 308.978C634.979 309.123 634.782 309.555 634.928 309.943L637.034 315.561L631.416 317.668C631.029 317.813 630.832 318.246 630.978 318.633C631.123 319.021 631.555 319.218 631.943 319.072L638.263 316.702ZM593.69 296.683L637.69 316.683L638.31 315.317L594.31 295.317L593.69 296.683Z" fill="black"/>
<path d="M485.427 231.739C485.283 231.504 484.975 231.429 484.739 231.573L480.898 233.918C480.663 234.062 480.588 234.369 480.732 234.605C480.876 234.841 481.184 234.915 481.419 234.771L484.834 232.687L486.918 236.102C487.062 236.337 487.369 236.412 487.605 236.268C487.841 236.124 487.915 235.816 487.771 235.58L485.427 231.739ZM470.486 294.118L485.486 232.118L484.514 231.882L469.514 293.882L470.486 294.118Z" fill="#009951"/>
<path d="M659.466 253.182C659.566 252.925 659.439 252.635 659.182 252.534L654.992 250.895C654.734 250.794 654.444 250.921 654.344 251.178C654.243 251.435 654.37 251.725 654.627 251.826L658.352 253.283L656.895 257.008C656.794 257.266 656.921 257.556 657.178 257.656C657.435 257.757 657.725 257.63 657.826 257.373L659.466 253.182ZM595.2 281.458L659.2 253.458L658.8 252.542L594.8 280.542L595.2 281.458Z" fill="#009951"/>
<path d="M574.676 301.675C574.497 301.302 574.049 301.145 573.675 301.324L567.59 304.245C567.217 304.424 567.059 304.872 567.239 305.245C567.418 305.619 567.866 305.776 568.239 305.597L573.648 303.001L576.245 308.41C576.424 308.783 576.872 308.941 577.245 308.761C577.619 308.582 577.776 308.134 577.597 307.761L574.676 301.675ZM561.708 339.249L574.708 302.249L573.292 301.751L560.292 338.751L561.708 339.249Z" fill="black"/>
<path d="M540.228 349.715C540.622 349.589 540.84 349.167 540.715 348.772L538.665 342.341C538.539 341.946 538.117 341.728 537.723 341.854C537.328 341.98 537.11 342.402 537.236 342.796L539.058 348.513L533.341 350.335C532.946 350.461 532.728 350.883 532.854 351.277C532.98 351.672 533.402 351.89 533.796 351.764L540.228 349.715ZM479.656 318.666L539.656 349.666L540.344 348.334L480.344 317.334L479.656 318.666Z" fill="black"/>
<path d="M513.231 120.556C512.986 120.429 512.684 120.524 512.556 120.769L510.48 124.762C510.353 125.007 510.448 125.309 510.693 125.436C510.938 125.563 511.24 125.468 511.368 125.223L513.213 121.674L516.762 123.52C517.007 123.647 517.309 123.552 517.436 123.307C517.563 123.062 517.468 122.76 517.223 122.632L513.231 120.556ZM525.477 158.849L513.477 120.849L512.523 121.151L524.523 159.151L525.477 158.849Z" fill="#C00F0C"/>
<path d="M466.085 187.507C465.813 187.46 465.554 187.643 465.507 187.915L464.743 192.35C464.696 192.622 464.878 192.88 465.15 192.927C465.423 192.974 465.681 192.792 465.728 192.52L466.408 188.578L470.35 189.257C470.622 189.304 470.88 189.122 470.927 188.85C470.974 188.577 470.792 188.319 470.52 188.272L466.085 187.507ZM478.408 204.712L466.408 187.712L465.592 188.288L477.592 205.288L478.408 204.712Z" fill="#C00F0C"/>
<path d="M671.437 261.757C671.303 261.516 670.999 261.429 670.757 261.563L666.823 263.748C666.582 263.882 666.495 264.187 666.629 264.428C666.763 264.67 667.068 264.757 667.309 264.622L670.806 262.68L672.748 266.177C672.882 266.418 673.187 266.505 673.428 266.371C673.67 266.237 673.757 265.932 673.622 265.691L671.437 261.757ZM659.481 304.137L671.481 262.137L670.519 261.863L658.519 303.863L659.481 304.137Z" fill="#C00F0C"/>
<path d="M734.53 321.53C734.823 321.237 734.823 320.763 734.53 320.47L729.757 315.697C729.464 315.404 728.99 315.404 728.697 315.697C728.404 315.99 728.404 316.464 728.697 316.757L732.939 321L728.697 325.243C728.404 325.536 728.404 326.01 728.697 326.303C728.99 326.596 729.464 326.596 729.757 326.303L734.53 321.53ZM671 321.75H734V320.25H671V321.75Z" fill="black"/>
<path d="M514.354 175.354C514.549 175.158 514.549 174.842 514.354 174.646L511.172 171.464C510.976 171.269 510.66 171.269 510.464 171.464C510.269 171.66 510.269 171.976 510.464 172.172L513.293 175L510.464 177.828C510.269 178.024 510.269 178.34 510.464 178.536C510.66 178.731 510.976 178.731 511.172 178.536L514.354 175.354ZM473 175.5H514V174.5H473V175.5Z" fill="#009951"/>
<path d="M520.5 186.98C520.489 186.704 520.256 186.489 519.98 186.5L515.484 186.68C515.208 186.691 514.993 186.924 515.004 187.2C515.015 187.476 515.248 187.69 515.524 187.679L519.52 187.52L519.68 191.516C519.691 191.792 519.924 192.007 520.2 191.996C520.476 191.985 520.69 191.752 520.679 191.476L520.5 186.98ZM496.367 213.339L520.367 187.339L519.633 186.661L495.633 212.661L496.367 213.339Z" fill="#009951"/>
<path d="M555.491 139.907C555.44 139.636 555.178 139.457 554.907 139.509L550.485 140.345C550.214 140.397 550.036 140.658 550.087 140.929C550.138 141.201 550.4 141.379 550.671 141.328L554.602 140.584L555.345 144.515C555.397 144.786 555.658 144.964 555.929 144.913C556.201 144.862 556.379 144.6 556.328 144.329L555.491 139.907ZM540.413 162.282L555.413 140.282L554.587 139.718L539.587 161.718L540.413 162.282Z" fill="#009951"/>
<path d="M453.776 159.447C454.023 159.571 454.324 159.471 454.447 159.224L456.46 155.199C456.583 154.952 456.483 154.651 456.236 154.528C455.989 154.404 455.689 154.504 455.565 154.751L453.776 158.329L450.199 156.54C449.952 156.417 449.651 156.517 449.528 156.764C449.404 157.011 449.504 157.311 449.751 157.435L453.776 159.447ZM441.526 123.158L453.526 159.158L454.474 158.842L442.474 122.842L441.526 123.158Z" fill="#009951"/>
<text fill="black" xml:space="preserve" style="white-space: pre" font-family="Average Sans" font-size="24" letter-spacing="0em"><tspan x="407.047" y="60.596">Cluster</tspan></text>
<path d="M425.5 106.5C425.5 97.6634 432.663 90.5 441.5 90.5C450.337 90.5 457.5 97.6634 457.5 106.5C457.5 115.337 450.337 122.5 441.5 122.5C432.663 122.5 425.5 115.337 425.5 106.5Z" fill="white" stroke="black"/>
<rect x="490.5" y="90.5" width="32" height="32" rx="16" fill="white" stroke="black"/>
<rect x="441.5" y="158.5" width="32" height="32" rx="16" fill="white" stroke="black"/>
<rect x="514.5" y="158.5" width="32" height="32" rx="16" fill="white" stroke="black"/>
<rect x="473.5" y="200.5" width="32" height="32" rx="16" fill="white" stroke="black"/>
<rect x="547.5" y="109.5" width="32" height="32" rx="16" fill="white" stroke="black"/>
<rect x="405.5" y="67.5" width="189" height="180" stroke="#8F8F8F" stroke-dasharray="2 2"/>
<path d="M425.5 106.5C425.5 97.6634 432.663 90.5 441.5 90.5C450.337 90.5 457.5 97.6634 457.5 106.5C457.5 115.337 450.337 122.5 441.5 122.5C432.663 122.5 425.5 115.337 425.5 106.5Z" fill="white" stroke="black"/>
<rect x="490.5" y="90.5" width="32" height="32" rx="16" fill="white" stroke="black"/>
<rect x="441.5" y="158.5" width="32" height="32" rx="16" fill="white" stroke="black"/>
<rect x="514.5" y="158.5" width="32" height="32" rx="16" fill="white" stroke="black"/>
<rect x="473.5" y="200.5" width="32" height="32" rx="16" fill="white" stroke="black"/>
<rect x="547.5" y="109.5" width="32" height="32" rx="16" fill="white" stroke="black"/>
<path d="M787.5 228.5C787.5 237.337 780.337 244.5 771.5 244.5C762.663 244.5 755.5 237.337 755.5 228.5C755.5 219.663 762.663 212.5 771.5 212.5C780.337 212.5 787.5 219.663 787.5 228.5Z" fill="white" stroke="black"/>
<rect x="738.5" y="206.5" width="32" height="32" rx="16" transform="rotate(180 738.5 206.5)" fill="white" stroke="black"/>
<rect x="787.5" y="128.5" width="32" height="32" rx="16" transform="rotate(180 787.5 128.5)" fill="white" stroke="black"/>
<rect x="658.5" y="126.5" width="32" height="32" rx="16" transform="rotate(180 658.5 126.5)" fill="white" stroke="black"/>
<rect x="722.5" y="103.5" width="32" height="32" rx="16" transform="rotate(180 722.5 103.5)" fill="white" stroke="black"/>
<rect x="648.5" y="194.5" width="32" height="32" rx="16" transform="rotate(180 648.5 194.5)" fill="white" stroke="black"/>
<path d="M670.5 319.5C670.5 328.337 663.337 335.5 654.5 335.5C645.663 335.5 638.5 328.337 638.5 319.5C638.5 310.663 645.663 303.5 654.5 303.5C663.337 303.5 670.5 310.663 670.5 319.5Z" fill="white" stroke="black"/>
<rect x="571.5" y="368.5" width="32" height="32" rx="16" transform="rotate(180 571.5 368.5)" fill="white" stroke="black"/>
<rect x="766.5" y="336.5" width="32" height="32" rx="16" transform="rotate(180 766.5 336.5)" fill="white" stroke="black"/>
<rect x="596.5" y="303.5" width="32" height="32" rx="16" transform="rotate(180 596.5 303.5)" fill="white" stroke="black"/>
<path d="M690 245.5C690 254.337 682.837 261.5 674 261.5C665.163 261.5 658 254.337 658 245.5C658 236.663 665.163 229.5 674 229.5C682.837 229.5 690 236.663 690 245.5Z" fill="white" stroke="black"/>
<rect x="482.5" y="324.5" width="32" height="32" rx="16" transform="rotate(180 482.5 324.5)" fill="white" stroke="black"/>
<rect x="405.5" y="67.5" width="189" height="180" stroke="#8F8F8F" stroke-dasharray="2 2"/>
<rect x="388.5" y="31.5" width="417" height="351" stroke="#8F8F8F" stroke-dasharray="2 2"/>
<text fill="black" xml:space="preserve" style="white-space: pre" font-family="Average Sans" font-size="24" letter-spacing="0em"><tspan x="582.117" y="348.596">Path</tspan></text>
<path d="M490.354 106.354C490.549 106.158 490.549 105.842 490.354 105.646L487.172 102.464C486.976 102.269 486.66 102.269 486.464 102.464C486.269 102.66 486.269 102.976 486.464 103.172L489.293 106L486.464 108.828C486.269 109.024 486.269 109.34 486.464 109.536C486.66 109.731 486.976 109.731 487.172 109.536L490.354 106.354ZM458 106.5H490V105.5H458V106.5Z" fill="#009951"/>
<path d="M548.2 120.458C548.453 120.348 548.569 120.053 548.458 119.8L546.66 115.675C546.55 115.422 546.255 115.306 546.002 115.417C545.749 115.527 545.633 115.822 545.744 116.075L547.342 119.741L543.675 121.34C543.422 121.45 543.306 121.745 543.417 121.998C543.527 122.251 543.822 122.367 544.075 122.256L548.2 120.458ZM519.817 109.465L547.817 120.465L548.183 119.535L520.183 108.535L519.817 109.465Z" fill="#C00F0C"/>
<path d="M619.038 169.499C619.314 169.477 619.52 169.237 619.499 168.962L619.153 164.475C619.132 164.2 618.892 163.994 618.617 164.015C618.341 164.036 618.135 164.276 618.156 164.552L618.463 168.54L614.475 168.847C614.2 168.868 613.994 169.108 614.015 169.383C614.036 169.659 614.276 169.865 614.552 169.844L619.038 169.499ZM576.675 133.38L618.675 169.38L619.325 168.62L577.325 132.62L576.675 133.38Z" fill="#009951"/>
<path d="M710.987 179.5C711.263 179.507 711.493 179.289 711.5 179.013L711.617 174.515C711.624 174.239 711.406 174.009 711.13 174.002C710.854 173.994 710.625 174.212 710.618 174.488L710.513 178.487L706.515 178.383C706.239 178.376 706.009 178.594 706.002 178.87C705.994 179.146 706.212 179.375 706.488 179.382L710.987 179.5ZM654.637 120.344L710.637 179.344L711.363 178.656L655.363 119.656L654.637 120.344Z" fill="#009951"/>
<path d="M758.045 219.498C758.32 219.473 758.523 219.23 758.498 218.955L758.091 214.473C758.066 214.198 757.822 213.996 757.547 214.021C757.272 214.046 757.07 214.289 757.095 214.564L757.457 218.547L753.473 218.909C753.198 218.934 752.996 219.178 753.021 219.453C753.046 219.728 753.289 219.93 753.564 219.905L758.045 219.498ZM733.68 199.384L757.68 219.384L758.32 218.616L734.32 198.616L733.68 199.384Z" fill="#009951"/>
<path d="M691.441 94.2358C691.571 93.9923 691.479 93.6893 691.236 93.5591L687.268 91.4367C687.024 91.3064 686.721 91.3982 686.591 91.6417C686.461 91.8852 686.553 92.1882 686.796 92.3185L690.323 94.2051L688.437 97.7322C688.306 97.9757 688.398 98.2787 688.642 98.4089C688.885 98.5392 689.188 98.4474 689.318 98.2039L691.441 94.2358ZM658.145 104.479L691.145 94.4785L690.855 93.5215L657.855 103.521L658.145 104.479Z" fill="#009951"/>
<path d="M758.224 104.447C758.471 104.324 758.571 104.023 758.447 103.776L756.435 99.7515C756.311 99.5045 756.011 99.4044 755.764 99.5279C755.517 99.6514 755.417 99.9517 755.54 100.199L757.329 103.776L753.751 105.565C753.504 105.689 753.404 105.989 753.528 106.236C753.651 106.483 753.952 106.583 754.199 106.46L758.224 104.447ZM721.842 92.4743L757.842 104.474L758.158 103.526L722.158 91.5257L721.842 92.4743Z" fill="#009951"/>
<path d="M638.399 125.698C638.232 125.478 637.919 125.435 637.698 125.601L634.109 128.315C633.889 128.482 633.845 128.795 634.012 129.016C634.178 129.236 634.492 129.279 634.712 129.113L637.903 126.7L640.315 129.891C640.482 130.111 640.795 130.155 641.016 129.988C641.236 129.822 641.279 129.508 641.113 129.288L638.399 125.698ZM633.495 162.069L638.495 126.069L637.505 125.931L632.505 161.931L633.495 162.069Z" fill="#009951"/>
<path d="M638.263 316.702C638.651 316.557 638.848 316.124 638.702 315.737L636.332 309.416C636.187 309.029 635.754 308.832 635.367 308.978C634.979 309.123 634.782 309.555 634.928 309.943L637.034 315.561L631.416 317.668C631.029 317.813 630.832 318.246 630.978 318.633C631.123 319.021 631.555 319.218 631.943 319.072L638.263 316.702ZM593.69 296.683L637.69 316.683L638.31 315.317L594.31 295.317L593.69 296.683Z" fill="black"/>
<path d="M485.427 231.739C485.283 231.504 484.975 231.429 484.739 231.573L480.898 233.918C480.663 234.062 480.588 234.369 480.732 234.605C480.876 234.841 481.184 234.915 481.419 234.771L484.834 232.687L486.918 236.102C487.062 236.337 487.369 236.412 487.605 236.268C487.841 236.124 487.915 235.816 487.771 235.58L485.427 231.739ZM470.486 294.118L485.486 232.118L484.514 231.882L469.514 293.882L470.486 294.118Z" fill="#009951"/>
<path d="M659.466 253.182C659.566 252.925 659.439 252.635 659.182 252.534L654.992 250.895C654.734 250.794 654.444 250.921 654.344 251.178C654.243 251.435 654.37 251.725 654.627 251.826L658.352 253.283L656.895 257.008C656.794 257.266 656.921 257.556 657.178 257.656C657.435 257.757 657.725 257.63 657.826 257.373L659.466 253.182ZM595.2 281.458L659.2 253.458L658.8 252.542L594.8 280.542L595.2 281.458Z" fill="#009951"/>
<path d="M574.676 301.675C574.497 301.302 574.049 301.145 573.675 301.324L567.59 304.245C567.217 304.424 567.059 304.872 567.239 305.245C567.418 305.619 567.866 305.776 568.239 305.597L573.648 303.001L576.245 308.41C576.424 308.783 576.872 308.941 577.245 308.761C577.619 308.582 577.776 308.134 577.597 307.761L574.676 301.675ZM561.708 339.249L574.708 302.249L573.292 301.751L560.292 338.751L561.708 339.249Z" fill="black"/>
<path d="M540.228 349.715C540.622 349.589 540.84 349.167 540.715 348.772L538.665 342.341C538.539 341.946 538.117 341.728 537.723 341.854C537.328 341.98 537.11 342.402 537.236 342.796L539.058 348.513L533.341 350.335C532.946 350.461 532.728 350.883 532.854 351.277C532.98 351.672 533.402 351.89 533.796 351.764L540.228 349.715ZM479.656 318.666L539.656 349.666L540.344 348.334L480.344 317.334L479.656 318.666Z" fill="black"/>
<path d="M513.231 120.556C512.986 120.429 512.684 120.524 512.556 120.769L510.48 124.762C510.353 125.007 510.448 125.309 510.693 125.436C510.938 125.563 511.24 125.468 511.368 125.223L513.213 121.674L516.762 123.52C517.007 123.647 517.309 123.552 517.436 123.307C517.563 123.062 517.468 122.76 517.223 122.632L513.231 120.556ZM525.477 158.849L513.477 120.849L512.523 121.151L524.523 159.151L525.477 158.849Z" fill="#C00F0C"/>
<path d="M466.085 187.507C465.813 187.46 465.554 187.643 465.507 187.915L464.743 192.35C464.696 192.622 464.878 192.88 465.15 192.927C465.423 192.974 465.681 192.792 465.728 192.52L466.408 188.578L470.35 189.257C470.622 189.304 470.88 189.122 470.927 188.85C470.974 188.577 470.792 188.319 470.52 188.272L466.085 187.507ZM478.408 204.712L466.408 187.712L465.592 188.288L477.592 205.288L478.408 204.712Z" fill="#C00F0C"/>
<path d="M671.437 261.757C671.303 261.516 670.999 261.429 670.757 261.563L666.823 263.748C666.582 263.882 666.495 264.187 666.629 264.428C666.763 264.67 667.068 264.757 667.309 264.622L670.806 262.68L672.748 266.177C672.882 266.418 673.187 266.505 673.428 266.371C673.67 266.237 673.757 265.932 673.622 265.691L671.437 261.757ZM659.481 304.137L671.481 262.137L670.519 261.863L658.519 303.863L659.481 304.137Z" fill="#C00F0C"/>
<path d="M734.53 321.53C734.823 321.237 734.823 320.763 734.53 320.47L729.757 315.697C729.464 315.404 728.99 315.404 728.697 315.697C728.404 315.99 728.404 316.464 728.697 316.757L732.939 321L728.697 325.243C728.404 325.536 728.404 326.01 728.697 326.303C728.99 326.596 729.464 326.596 729.757 326.303L734.53 321.53ZM671 321.75H734V320.25H671V321.75Z" fill="black"/>
<path d="M514.354 175.354C514.549 175.158 514.549 174.842 514.354 174.646L511.172 171.464C510.976 171.269 510.66 171.269 510.464 171.464C510.269 171.66 510.269 171.976 510.464 172.172L513.293 175L510.464 177.828C510.269 178.024 510.269 178.34 510.464 178.536C510.66 178.731 510.976 178.731 511.172 178.536L514.354 175.354ZM473 175.5H514V174.5H473V175.5Z" fill="#009951"/>
<path d="M520.5 186.98C520.489 186.704 520.256 186.489 519.98 186.5L515.484 186.68C515.208 186.691 514.993 186.924 515.004 187.2C515.015 187.476 515.248 187.69 515.524 187.679L519.52 187.52L519.68 191.516C519.691 191.792 519.924 192.007 520.2 191.996C520.476 191.985 520.69 191.752 520.679 191.476L520.5 186.98ZM496.367 213.339L520.367 187.339L519.633 186.661L495.633 212.661L496.367 213.339Z" fill="#009951"/>
<path d="M555.491 139.907C555.44 139.636 555.178 139.457 554.907 139.509L550.485 140.345C550.214 140.397 550.036 140.658 550.087 140.929C550.138 141.201 550.4 141.379 550.671 141.328L554.602 140.584L555.345 144.515C555.397 144.786 555.658 144.964 555.929 144.913C556.201 144.862 556.379 144.6 556.328 144.329L555.491 139.907ZM540.413 162.282L555.413 140.282L554.587 139.718L539.587 161.718L540.413 162.282Z" fill="#009951"/>
<path d="M453.776 159.447C454.023 159.571 454.324 159.471 454.447 159.224L456.46 155.199C456.583 154.952 456.483 154.651 456.236 154.528C455.989 154.404 455.689 154.504 455.565 154.751L453.776 158.329L450.199 156.54C449.952 156.417 449.651 156.517 449.528 156.764C449.404 157.011 449.504 157.311 449.751 157.435L453.776 159.447ZM441.526 123.158L453.526 159.158L454.474 158.842L442.474 122.842L441.526 123.158Z" fill="#009951"/>
<text fill="black" xml:space="preserve" style="white-space: pre" font-family="Average Sans" font-size="24" letter-spacing="0em"><tspan x="407.047" y="60.596">Cluster</tspan></text>
<path d="M425.5 106.5C425.5 97.6634 432.663 90.5 441.5 90.5C450.337 90.5 457.5 97.6634 457.5 106.5C457.5 115.337 450.337 122.5 441.5 122.5C432.663 122.5 425.5 115.337 425.5 106.5Z" fill="white" stroke="black"/>
<rect x="490.5" y="90.5" width="32" height="32" rx="16" fill="white" stroke="black"/>
<rect x="441.5" y="158.5" width="32" height="32" rx="16" fill="white" stroke="black"/>
<rect x="514.5" y="158.5" width="32" height="32" rx="16" fill="white" stroke="black"/>
<rect x="473.5" y="200.5" width="32" height="32" rx="16" fill="white" stroke="black"/>
<rect x="547.5" y="109.5" width="32" height="32" rx="16" fill="white" stroke="black"/>
<rect x="405.5" y="67.5" width="189" height="180" stroke="#8F8F8F" stroke-dasharray="2 2"/>
<path d="M425.5 106.5C425.5 97.6634 432.663 90.5 441.5 90.5C450.337 90.5 457.5 97.6634 457.5 106.5C457.5 115.337 450.337 122.5 441.5 122.5C432.663 122.5 425.5 115.337 425.5 106.5Z" fill="white" stroke="black"/>
<rect x="490.5" y="90.5" width="32" height="32" rx="16" fill="white" stroke="black"/>
<rect x="441.5" y="158.5" width="32" height="32" rx="16" fill="white" stroke="black"/>
<rect x="514.5" y="158.5" width="32" height="32" rx="16" fill="white" stroke="black"/>
<rect x="473.5" y="200.5" width="32" height="32" rx="16" fill="white" stroke="black"/>
<rect x="547.5" y="109.5" width="32" height="32" rx="16" fill="white" stroke="black"/>
<path d="M787.5 228.5C787.5 237.337 780.337 244.5 771.5 244.5C762.663 244.5 755.5 237.337 755.5 228.5C755.5 219.663 762.663 212.5 771.5 212.5C780.337 212.5 787.5 219.663 787.5 228.5Z" fill="white" stroke="black"/>
<rect x="738.5" y="206.5" width="32" height="32" rx="16" transform="rotate(180 738.5 206.5)" fill="white" stroke="black"/>
<rect x="787.5" y="128.5" width="32" height="32" rx="16" transform="rotate(180 787.5 128.5)" fill="white" stroke="black"/>
<rect x="658.5" y="126.5" width="32" height="32" rx="16" transform="rotate(180 658.5 126.5)" fill="white" stroke="black"/>
<rect x="722.5" y="103.5" width="32" height="32" rx="16" transform="rotate(180 722.5 103.5)" fill="white" stroke="black"/>
<rect x="648.5" y="194.5" width="32" height="32" rx="16" transform="rotate(180 648.5 194.5)" fill="white" stroke="black"/>
<path d="M670.5 319.5C670.5 328.337 663.337 335.5 654.5 335.5C645.663 335.5 638.5 328.337 638.5 319.5C638.5 310.663 645.663 303.5 654.5 303.5C663.337 303.5 670.5 310.663 670.5 319.5Z" fill="white" stroke="black"/>
<rect x="571.5" y="368.5" width="32" height="32" rx="16" transform="rotate(180 571.5 368.5)" fill="white" stroke="black"/>
<rect x="766.5" y="336.5" width="32" height="32" rx="16" transform="rotate(180 766.5 336.5)" fill="white" stroke="black"/>
<rect x="596.5" y="303.5" width="32" height="32" rx="16" transform="rotate(180 596.5 303.5)" fill="white" stroke="black"/>
<path d="M690 245.5C690 254.337 682.837 261.5 674 261.5C665.163 261.5 658 254.337 658 245.5C658 236.663 665.163 229.5 674 229.5C682.837 229.5 690 236.663 690 245.5Z" fill="white" stroke="black"/>
<rect x="482.5" y="324.5" width="32" height="32" rx="16" transform="rotate(180 482.5 324.5)" fill="white" stroke="black"/>
<rect x="405.5" y="67.5" width="189" height="180" stroke="#8F8F8F" stroke-dasharray="2 2"/>
<rect x="388.5" y="31.5" width="417" height="351" stroke="#8F8F8F" stroke-dasharray="2 2"/>
<text fill="black" xml:space="preserve" style="white-space: pre" font-family="Average Sans" font-size="24" letter-spacing="0em"><tspan x="582.117" y="348.596">Path</tspan></text>
<text fill="black" xml:space="preserve" style="white-space: pre" font-family="Average Sans" font-size="24" letter-spacing="0em"><tspan x="574.195" y="24.596">Graph</tspan></text>
</svg>
